<?xml version="1.0" encoding="UTF-8" standalone="no"?>
<!-- Generator: Adobe Illustrator 13.0.0, SVG Export Plug-In . SVG Version: 6.00 Build 14948)  -->

<svg
   xmlns:dc="http://purl.org/dc/elements/1.1/"
   xmlns:cc="http://creativecommons.org/ns#"
   xmlns:rdf="http://www.w3.org/1999/02/22-rdf-syntax-ns#"
   xmlns:svg="http://www.w3.org/2000/svg"
   xmlns="http://www.w3.org/2000/svg"
   xmlns:sodipodi="http://sodipodi.sourceforge.net/DTD/sodipodi-0.dtd"
   xmlns:inkscape="http://www.inkscape.org/namespaces/inkscape"
   version="1.1"
   id="Ebene_1"
   x="0px"
   y="0px"
   width="256"
   height="256"
   viewBox="0 0 256 256"
   enable-background="new 0 0 500 500"
   xml:space="preserve"
   inkscape:version="0.48.4 r9939"
   sodipodi:docname="pdfcreator_logo.svg"><metadata
   id="metadata21"><rdf:RDF><cc:Work
       rdf:about=""><dc:format>image/svg+xml</dc:format><dc:type
         rdf:resource="http://purl.org/dc/dcmitype/StillImage" /></cc:Work></rdf:RDF></metadata><defs
   id="defs19" /><sodipodi:namedview
   pagecolor="#ffffff"
   bordercolor="#666666"
   borderopacity="1"
   objecttolerance="10"
   gridtolerance="10"
   guidetolerance="10"
   inkscape:pageopacity="0"
   inkscape:pageshadow="2"
   inkscape:window-width="1920"
   inkscape:window-height="1018"
   id="namedview17"
   showgrid="false"
   fit-margin-top="0"
   fit-margin-left="0"
   fit-margin-right="0"
   fit-margin-bottom="0"
   inkscape:zoom="1.3350176"
   inkscape:cx="547.71264"
   inkscape:cy="-26.08426"
   inkscape:window-x="-8"
   inkscape:window-y="-8"
   inkscape:window-maximized="1"
   inkscape:current-layer="Ebene_1"><inkscape:grid
     type="xygrid"
     id="grid2998"
     empspacing="5"
     visible="true"
     enabled="true"
     snapvisiblegridlinesonly="true" /></sodipodi:namedview>
<rect
   x="0"
   y="0"
   width="256"
   height="256"
   id="rect3"
   style="fill:none" />
<g
   id="g5"
   transform="translate(-122,-122)">
	<path
   d="m 362.228,227.118 c -4.1,-11.069 -11.512,-20.286 -22.053,-28.643 l -22.368,-17.866 5.307,23.223 c -6.439,-9.194 -15.374,-20.743 -27.886,-31.985 -2.695,-2.428 -4.053,-4.355 -4.765,-5.813 -0.701,-1.478 -0.907,-2.554 -0.926,-4.058 -0.029,-2.08 0.663,-5.107 1.925,-9.071 1.223,-3.955 2.927,-8.772 3.991,-14.52 l 2.532,-13.805 -13.871,2.113 c -13.67,2.084 -26.048,7.755 -36.942,15.123 -9.811,6.642 -18.483,14.675 -26.028,23.049 -50.232,8.363 -88.45,51.98 -88.471,104.553 0.006,58.547 47.455,105.994 106,106.002 39.88,-0.006 74.644,-22.039 92.715,-54.59 9.795,-5.115 18.351,-12.201 24.71,-21.035 7.012,-9.717 11.244,-21.65 11.228,-34.66 -0.02,-14.909 -0.982,-26.964 -5.098,-38.017 z"
   id="path7"
   inkscape:connector-curvature="0"
   style="fill:#ffffff" />
	<path
   d="m 246.897,173.773 c 41.723,6.35 73.793,44.2 73.793,89.945 0,50.191 -38.606,90.891 -86.214,90.891 -47.614,0 -86.219,-40.699 -86.219,-90.891 0,-27.512 11.6,-52.168 29.922,-68.836 -21.662,17.602 -35.506,44.451 -35.506,74.537 0,53.018 42.982,96 96.002,96 53.016,0 95.999,-42.982 95.999,-96 0.001,-50.247 -38.61,-91.475 -87.777,-95.646 z"
   id="path9"
   inkscape:connector-curvature="0"
   style="fill:#c5091d" />
	<g
   id="g11">
		<path
   d="m 302.482,319.58 c 29.873,-3.984 54.844,-25.244 54.844,-54.445 0,-28.965 -4.1,-43.431 -23.393,-58.846 2.025,8.856 0.246,22.365 -2.34,23.18 -6.053,1.913 -14.822,-24.797 -43.053,-50.186 -16.434,-14.785 -5.932,-26.283 -2.922,-42.704 -46.815,7.125 -80.474,63.611 -88.387,83.254 -24.746,61.425 4.155,84.247 26.018,94.866 0,0 -20.64,-30.67 -5.302,-64.428 4.822,18.42 16.278,29.965 20.786,30.986 10.998,2.488 0,-23.133 0,-39.915 0,-17.705 8.238,-29.237 19.608,-44.351 6.281,21.146 11.547,40.545 22.773,51.777 11.344,11.336 30.705,23.543 30.396,39.863 -0.442,23.146 -1.496,20.883 -9.028,30.949 l 0,0 z"
   id="path13"
   inkscape:connector-curvature="0"
   style="fill:#c5091d" />
	</g>
	<path
   d="m 304.766,300.244 4.972,-0.535 2.048,19.09 22.17188,-10.0099 2.33312,4.8709 -28.754,12.422 -2.771,-25.838 z m 0,-0.002 0,0.002 0,0 0,-0.002 z"
   id="path15"
   inkscape:connector-curvature="0"
   style="fill:#ffffff"
   sodipodi:nodetypes="ccccccccccccc" />
</g>
</svg>